<svg width="186" height="87" viewBox="0 0 186 87" fill="none" xmlns="http://www.w3.org/2000/svg">
<g filter="url(#filter0_d_210_394)">
<rect x="1" width="184" height="44" fill="#1B75BB"/>
<rect x="1" y="41" width="184" height="44" fill="#FFED02"/>
<g filter="url(#filter1_d_210_394)">
<path d="M69.2266 61V55H80.0266V26.74L71.2066 32.5L68.3866 26.74L80.0266 19H87.5266V55H95.8066V61H69.2266ZM130.58 39.88C130.58 50.68 127.6 57.44 121.64 60.16C119.84 60.96 117.78 61.36 115.46 61.36C105.9 61.36 101.12 54.2 101.12 39.88C101.12 34.08 102.14 29.18 104.18 25.18C105.26 23.06 106.82 21.4 108.86 20.2C110.9 19 113.34 18.4 116.18 18.4C125.78 18.4 130.58 25.56 130.58 39.88ZM123.08 40V39.76C123.08 29.92 120.68 25 115.88 25C113.32 25 111.46 26.38 110.3 29.14C109.18 31.9 108.62 35.48 108.62 39.88C108.62 44.28 109.18 47.86 110.3 50.62C111.46 53.38 113.32 54.76 115.88 54.76C120.68 54.76 123.08 49.84 123.08 40ZM151.165 21.4C153.485 21.76 155.645 22.36 157.645 23.2L158.725 23.62L157.285 29.62L154.525 28.54C151.965 27.7 149.745 27.28 147.865 27.28C145.345 27.28 144.085 28.56 144.085 31.12C144.085 32.44 144.685 33.54 145.885 34.42C147.085 35.26 148.525 35.96 150.205 36.52C151.925 37.08 153.625 37.74 155.305 38.5C156.985 39.22 158.425 40.38 159.625 41.98C160.825 43.58 161.425 45.78 161.425 48.58C161.425 51.34 160.525 53.68 158.725 55.6C156.965 57.52 154.445 58.68 151.165 59.08V64.6H144.865V59.2C141.625 59 138.585 58.02 135.745 56.26L137.665 50.86C141.065 52.34 144.445 53.08 147.805 53.08C149.685 53.08 151.165 52.64 152.245 51.76C153.325 50.88 153.865 49.72 153.865 48.28C153.865 46.84 153.265 45.7 152.065 44.86C150.865 43.98 149.405 43.26 147.685 42.7C146.005 42.1 144.305 41.42 142.585 40.66C140.905 39.9 139.465 38.74 138.265 37.18C137.065 35.58 136.465 33.46 136.465 30.82C136.465 28.18 137.225 26.02 138.745 24.34C140.305 22.66 142.345 21.68 144.865 21.4V16.18H151.165V21.4Z" fill="white"/>
</g>
<path d="M17.5582 60.375C17.5582 62.065 17.0682 63.425 16.0882 64.455C15.1082 65.485 13.7982 66 12.1582 66H9.36822V55.5H12.6232C14.1132 55.5 15.3082 55.955 16.2082 56.865C17.1082 57.775 17.5582 58.945 17.5582 60.375ZM15.2932 60.255C15.2932 59.315 15.0382 58.575 14.5282 58.035C14.0182 57.495 13.4032 57.225 12.6832 57.225H11.4832V64.275H12.2932C13.1332 64.275 13.8432 63.92 14.4232 63.21C15.0032 62.49 15.2932 61.505 15.2932 60.255ZM22.8601 66.075C21.3901 66.075 20.2801 65.57 19.5301 64.56C18.7801 63.54 18.4051 62.245 18.4051 60.675C18.4051 59.105 18.7801 57.825 19.5301 56.835C20.2901 55.845 21.4001 55.35 22.8601 55.35C24.3301 55.35 25.4451 55.845 26.2051 56.835C26.9651 57.825 27.3451 59.105 27.3451 60.675C27.3451 62.825 26.6901 64.375 25.3801 65.325C24.6901 65.825 23.8501 66.075 22.8601 66.075ZM22.8901 57.075C22.3601 57.075 21.9151 57.26 21.5551 57.63C20.9151 58.27 20.5951 59.285 20.5951 60.675C20.5951 61.725 20.7901 62.6 21.1801 63.3C21.5701 63.99 22.1401 64.335 22.8901 64.335C23.6501 64.335 24.2201 63.985 24.6001 63.285C24.9801 62.575 25.1701 61.715 25.1701 60.705C25.1701 59.685 24.9651 58.825 24.5551 58.125C24.1551 57.425 23.6001 57.075 22.8901 57.075ZM36.8617 66.015H34.5817L31.0267 59.55V66H28.8067V55.5H31.0267L34.6867 62.28V55.5H36.8617V66.015ZM46.7124 66H44.5524L43.8024 63.435H40.6374L39.9024 66H37.8174L40.9674 55.5H43.5324L46.7124 66ZM43.3974 61.71L42.2424 57.39L41.0724 61.71H43.3974ZM48.7233 66V57.255H46.3083V55.5H53.2683V57.255H50.8833V66H48.7233ZM60.8869 66H54.6319V55.5H60.8869V57.225H56.8069V59.43H60.5119V61.185H56.8069V64.275H60.8869V66Z" fill="#1B75BB"/>
<g clip-path="url(#clip0_210_394)" filter="url(#filter2_d_210_394)">
<path d="M52.9333 38H13.0667C12.2533 38 11.4733 37.6734 10.8982 37.092C10.3231 36.5107 10 35.7222 10 34.9V10.1C10 9.27783 10.3231 8.48933 10.8982 7.90797C11.4733 7.32661 12.2533 7 13.0667 7H52.9333C53.7467 7 54.5267 7.32661 55.1018 7.90797C55.6769 8.48933 56 9.27783 56 10.1V34.9C56 35.7222 55.6769 36.5107 55.1018 37.092C54.5267 37.6734 53.7467 38 52.9333 38ZM27.9298 20.3365C27.8948 20.3369 27.8603 20.3453 27.8289 20.3609C27.7976 20.3766 27.77 20.3991 27.7483 20.4269C27.698 20.4787 27.6692 20.548 27.6678 20.6206C27.6678 20.6477 27.7931 21.034 28.0614 21.8257L28.6415 23.5385L28.9111 24.3368C29.2135 25.2323 29.3715 25.7085 29.3852 25.7653C28.7903 26.5099 28.2525 27.2992 27.7764 28.1265L27.7279 28.2169L27.7253 28.2492C27.7253 28.3784 27.8288 28.4843 27.9579 28.4843L27.9924 28.4817H27.9911H29.5474C29.62 28.4813 29.6912 28.4622 29.7545 28.4263C29.8178 28.3903 29.8709 28.3387 29.9091 28.2763L29.9103 28.275L35.0623 20.7588C35.0894 20.7228 35.1042 20.6788 35.1045 20.6335L35.1032 20.6142V20.6155C35.1015 20.5429 35.0727 20.4737 35.0227 20.4217C35.0012 20.394 34.9739 20.3716 34.9427 20.3559C34.9116 20.3403 34.8773 20.3319 34.8426 20.3313H33.2849C33.2122 20.3318 33.1408 20.3508 33.0773 20.3868C33.0139 20.4227 32.9605 20.4742 32.9221 20.5367L32.9208 20.538L30.7741 23.7232L29.8861 20.6594C29.8633 20.566 29.8103 20.483 29.7355 20.4236C29.6607 20.3641 29.5685 20.3317 29.4733 20.3313L29.4401 20.3326H29.4414L27.9298 20.3365ZM45.7906 20.1931H45.7573C44.7888 20.1931 43.9186 20.618 43.3181 21.2923L43.3155 21.2949C42.6587 21.9816 42.292 22.8998 42.2933 23.855V23.8898V23.8885C42.2907 23.926 42.2907 23.9712 42.2907 24.0151C42.2907 24.7087 42.5578 25.3404 42.9922 25.8092L42.9909 25.808C43.2381 26.0513 43.5322 26.2404 43.855 26.3636C44.1778 26.4867 44.5222 26.5411 44.8667 26.5235H44.8603C45.2909 26.5184 45.6998 26.4292 46.0729 26.2691L46.0525 26.2768C46.4294 26.1335 46.7489 25.91 47.0006 25.6258L47.0032 25.6232C46.9904 25.6969 46.9763 25.7589 46.9597 25.8183L46.9623 25.8054C46.9395 25.8845 46.9257 25.9659 46.9214 26.0482V26.0508C46.9214 26.2678 47.0096 26.3776 47.1846 26.3776H48.5787C48.6331 26.3825 48.688 26.3764 48.74 26.3595C48.7921 26.3427 48.8402 26.3154 48.8817 26.2794C48.9231 26.2434 48.957 26.1994 48.9814 26.1499C49.0057 26.1004 49.02 26.0465 49.0233 25.9914V25.9901L49.8513 20.6594C49.8591 20.6192 49.8578 20.5777 49.8474 20.5381C49.837 20.4984 49.8178 20.4617 49.7913 20.4307C49.7683 20.3987 49.7381 20.3727 49.7032 20.3547C49.6684 20.3368 49.6298 20.3274 49.5907 20.3274H48.0535C47.8657 20.3274 47.7468 20.5535 47.7085 21.0017C47.4836 20.7099 47.1878 20.482 46.8499 20.3401C46.512 20.1982 46.1435 20.1471 45.7803 20.1918L45.7906 20.1905V20.1931ZM22.8378 20.1931H22.8021C21.8348 20.1931 20.9646 20.618 20.3666 21.2923L20.3641 21.2949C19.7072 21.9816 19.3406 22.8998 19.3418 23.855V23.8898V23.8885C19.3249 24.2396 19.3782 24.5906 19.4985 24.9204C19.6188 25.2502 19.8037 25.552 20.0421 25.808L20.0408 25.8067C20.4931 26.251 21.1116 26.5248 21.7939 26.5248L21.9166 26.5222H21.9102C22.3344 26.5158 22.7369 26.4267 23.1036 26.2678L23.0832 26.2755C23.4652 26.1283 23.7898 25.9061 24.0517 25.6232L24.053 25.622C24.0057 25.7485 23.9763 25.8958 23.9725 26.0482V26.0508C23.9725 26.2678 24.0619 26.3776 24.2357 26.3776H25.6285C25.6829 26.3825 25.7378 26.3764 25.7898 26.3595C25.8419 26.3427 25.8901 26.3154 25.9315 26.2794C25.973 26.2434 26.0069 26.1994 26.0312 26.1499C26.0555 26.1004 26.0698 26.0465 26.0732 25.9914V25.9901L26.9024 20.6594C26.9094 20.6195 26.9075 20.5785 26.8969 20.5394C26.8863 20.5003 26.8672 20.4641 26.8411 20.4333C26.8181 20.4013 26.7879 20.3753 26.7531 20.3573C26.7182 20.3394 26.6796 20.33 26.6405 20.33H25.1033C24.9155 20.33 24.7967 20.556 24.7596 21.0042C24.5323 20.7149 24.2361 20.4886 23.8986 20.3467C23.5611 20.2048 23.1934 20.1519 22.8302 20.1931L22.8404 20.1918L22.8378 20.1931ZM51.6709 17.3333L51.6504 17.332C51.5894 17.3318 51.5306 17.3548 51.4856 17.3965C51.4406 17.4381 51.4128 17.4953 51.4077 17.5568V17.5581L50.0941 26.0547C50.0833 26.0956 50.0832 26.1386 50.0937 26.1795C50.1042 26.2205 50.1251 26.258 50.1542 26.2885C50.1783 26.3174 50.2085 26.3406 50.2425 26.3564C50.2765 26.3723 50.3135 26.3804 50.3509 26.3802H51.6926L51.7335 26.3827C51.8352 26.3827 51.9327 26.3419 52.0046 26.2693C52.0764 26.1966 52.1168 26.098 52.1168 25.9953V25.9927L53.4278 17.642L53.4291 17.6136C53.429 17.54 53.4053 17.4683 53.3614 17.4095V17.4108C53.3384 17.3861 53.3107 17.3663 53.28 17.3528C53.2492 17.3392 53.216 17.3322 53.1825 17.332L53.1633 17.3333H53.1646H51.6709ZM36.7592 17.3333C36.7044 17.3261 36.6486 17.3306 36.5956 17.3465C36.5426 17.3625 36.4935 17.3896 36.4516 17.426C36.4096 17.4625 36.3757 17.5075 36.3521 17.558C36.3285 17.6086 36.3157 17.6636 36.3146 17.7195L35.0023 26.0534C34.9955 26.093 34.9974 26.1336 35.0078 26.1725C35.0181 26.2113 35.0368 26.2473 35.0623 26.2781C35.0849 26.3103 35.1148 26.3364 35.1495 26.3544C35.1842 26.3724 35.2227 26.3817 35.2617 26.3815H36.9292C37.004 26.3814 37.0765 26.3551 37.1343 26.307C37.1921 26.259 37.2316 26.1922 37.2461 26.118V26.1154L37.6102 23.7465C37.6211 23.6427 37.6721 23.5476 37.7521 23.4817H37.7533C37.8405 23.4104 37.9452 23.3645 38.0562 23.3486H38.06C38.1635 23.3292 38.2823 23.3189 38.4037 23.3176H38.405C38.5123 23.3176 38.6401 23.3241 38.7883 23.3383C38.9503 23.3571 39.1134 23.3658 39.2764 23.3641C40.2126 23.3657 41.1147 23.009 41.8013 22.3657L41.7988 22.3682C42.1412 22.0012 42.4056 21.5672 42.5757 21.0929C42.7458 20.6186 42.8179 20.1141 42.7878 19.6105V19.6209C42.8153 19.2879 42.7588 18.9532 42.6236 18.6483C42.4884 18.3433 42.2789 18.078 42.0147 17.8771L42.0096 17.8733C41.3999 17.4835 40.6856 17.2944 39.9652 17.332H39.9728L36.7592 17.3333ZM13.7822 17.3333C13.7288 17.3275 13.6747 17.3332 13.6236 17.3499C13.5724 17.3666 13.5253 17.394 13.4853 17.4303C13.4453 17.4665 13.4133 17.5109 13.3913 17.5606C13.3694 17.6102 13.3581 17.6639 13.358 17.7183V17.7208L12.0444 26.0547C12.0376 26.0943 12.0394 26.1349 12.0498 26.1738C12.0602 26.2126 12.0788 26.2487 12.1045 26.2794C12.1271 26.3116 12.157 26.3377 12.1917 26.3557C12.2264 26.3737 12.2648 26.383 12.3038 26.3827H13.8423C13.8971 26.39 13.9529 26.3855 14.0059 26.3696C14.0589 26.3536 14.108 26.3265 14.1499 26.29C14.1919 26.2536 14.2258 26.2086 14.2494 26.1581C14.273 26.1075 14.2858 26.0524 14.2869 25.9965L14.6511 23.7503C14.6622 23.647 14.7126 23.552 14.7917 23.4855H14.7929C14.8801 23.4143 14.9848 23.3683 15.0958 23.3525H15.0996C15.2127 23.3323 15.3272 23.322 15.4421 23.3215H15.4433C15.5507 23.3215 15.6784 23.328 15.8267 23.3422C15.9883 23.3609 16.1508 23.3696 16.3135 23.368C17.2884 23.368 18.1752 22.9895 18.8397 22.3695L18.8371 22.3721C19.1794 22.005 19.4437 21.5709 19.6138 21.0967C19.7839 20.6224 19.8561 20.118 19.8261 19.6144V19.6248C19.8536 19.2917 19.7971 18.9571 19.6619 18.6521C19.5267 18.3472 19.3172 18.0819 19.0531 17.881L19.0479 17.8771C18.4409 17.4888 17.73 17.2993 17.0124 17.3346H17.0201L13.7822 17.3333ZM45.7062 24.8702L45.6449 24.8715C45.3184 24.8718 45.0024 24.7551 44.753 24.5421L44.7556 24.5434C44.6402 24.436 44.5482 24.3056 44.4853 24.1604C44.4224 24.0153 44.39 23.8585 44.3901 23.7L44.3914 23.6418V23.607C44.3914 23.1239 44.5843 22.686 44.8974 22.3682C45.2053 22.0492 45.6347 21.8516 46.11 21.8516H46.1522H46.1496L46.1931 21.8503C46.5368 21.8503 46.8498 21.9782 47.0901 22.1887L47.0888 22.1874C47.2074 22.2985 47.3021 22.4331 47.3667 22.583C47.4314 22.7328 47.4646 22.8945 47.4644 23.058L47.4632 23.12V23.1174V23.1484C47.4632 23.625 47.2677 24.0565 46.9521 24.3626C46.7926 24.5231 46.6035 24.6504 46.3954 24.737C46.1874 24.8237 45.9645 24.8681 45.7394 24.8676H45.7075H45.7088L45.7062 24.8702ZM22.7331 24.8702L22.6692 24.8715C22.3344 24.8715 22.0264 24.7475 21.7913 24.5421L21.7926 24.5434C21.6803 24.4348 21.5908 24.3043 21.5298 24.1598C21.4687 24.0152 21.4373 23.8597 21.4374 23.7025L21.4387 23.6418V23.607C21.4387 23.1239 21.6316 22.686 21.9447 22.3682C22.2526 22.0492 22.6807 21.8516 23.156 21.8516H23.2007H23.1982L23.2416 21.8503C23.5853 21.8503 23.8984 21.9782 24.1386 22.1887L24.1373 22.1874C24.2557 22.2984 24.35 22.4329 24.4144 22.5825C24.4789 22.7321 24.512 22.8935 24.5117 23.0567L24.5104 23.12V23.1174V23.1626C24.5104 23.6392 24.3149 24.0681 23.9993 24.3742C23.6718 24.6928 23.2349 24.8706 22.7803 24.8702H22.7343H22.7369H22.7331ZM37.9476 21.5635L38.2913 19.3793C38.294 19.3472 38.303 19.3159 38.3177 19.2872C38.3324 19.2586 38.3526 19.2332 38.377 19.2124C38.4015 19.1917 38.4297 19.176 38.4602 19.1663C38.4906 19.1566 38.5227 19.153 38.5545 19.1559H38.5532H38.9174L38.9953 19.1546C39.2164 19.1546 39.4349 19.1701 39.6483 19.1998L39.624 19.1972C39.8221 19.2334 39.9946 19.3238 40.13 19.453C40.2072 19.5267 40.2686 19.6156 40.3106 19.7142C40.3526 19.8128 40.3742 19.9191 40.3741 20.0265L40.3728 20.0755V20.073C40.3996 20.2887 40.3733 20.5079 40.2962 20.7109C40.2191 20.914 40.0935 21.0946 39.9307 21.2367L39.9294 21.238C39.5222 21.4729 39.0554 21.5808 38.5877 21.548H38.5954L37.9501 21.5687L37.9476 21.5635ZM14.9744 21.5635L15.3181 19.3793C15.3207 19.3471 15.3296 19.3157 15.3442 19.287C15.3589 19.2583 15.379 19.2328 15.4035 19.212C15.428 19.1912 15.4563 19.1755 15.4869 19.1659C15.5174 19.1563 15.5495 19.1529 15.5813 19.1559H15.5801H15.9634C16.3725 19.1256 16.782 19.2086 17.1479 19.3961L17.1351 19.3897C17.3766 19.546 17.4584 19.8779 17.3779 20.3791C17.3717 20.5662 17.3211 20.7491 17.2304 20.9123C17.1397 21.0755 17.0115 21.2142 16.8566 21.3168L16.8527 21.3194C16.2471 21.5449 15.5986 21.6279 14.9565 21.5623L14.9744 21.5635Z" fill="#FFED02"/>
</g>
</g>
<defs>
<filter id="filter0_d_210_394" x="0" y="0" width="186" height="87" filterUnits="userSpaceOnUse" color-interpolation-filters="sRGB">
<feFlood flood-opacity="0" result="BackgroundImageFix"/>
<feColorMatrix in="SourceAlpha" type="matrix" values="0 0 0 0 0 0 0 0 0 0 0 0 0 0 0 0 0 0 127 0" result="hardAlpha"/>
<feOffset dy="1"/>
<feGaussianBlur stdDeviation="0.5"/>
<feComposite in2="hardAlpha" operator="out"/>
<feColorMatrix type="matrix" values="0 0 0 0 0 0 0 0 0 0 0 0 0 0 0 0 0 0 0.25 0"/>
<feBlend mode="normal" in2="BackgroundImageFix" result="effect1_dropShadow_210_394"/>
<feBlend mode="normal" in="SourceGraphic" in2="effect1_dropShadow_210_394" result="shape"/>
</filter>
<filter id="filter1_d_210_394" x="67.3867" y="16.18" width="95.0378" height="50.42" filterUnits="userSpaceOnUse" color-interpolation-filters="sRGB">
<feFlood flood-opacity="0" result="BackgroundImageFix"/>
<feColorMatrix in="SourceAlpha" type="matrix" values="0 0 0 0 0 0 0 0 0 0 0 0 0 0 0 0 0 0 127 0" result="hardAlpha"/>
<feOffset dy="1"/>
<feGaussianBlur stdDeviation="0.5"/>
<feComposite in2="hardAlpha" operator="out"/>
<feColorMatrix type="matrix" values="0 0 0 0 0 0 0 0 0 0 0 0 0 0 0 0 0 0 0.25 0"/>
<feBlend mode="normal" in2="BackgroundImageFix" result="effect1_dropShadow_210_394"/>
<feBlend mode="normal" in="SourceGraphic" in2="effect1_dropShadow_210_394" result="shape"/>
</filter>
<filter id="filter2_d_210_394" x="9" y="7" width="48" height="33" filterUnits="userSpaceOnUse" color-interpolation-filters="sRGB">
<feFlood flood-opacity="0" result="BackgroundImageFix"/>
<feColorMatrix in="SourceAlpha" type="matrix" values="0 0 0 0 0 0 0 0 0 0 0 0 0 0 0 0 0 0 127 0" result="hardAlpha"/>
<feOffset dy="1"/>
<feGaussianBlur stdDeviation="0.5"/>
<feComposite in2="hardAlpha" operator="out"/>
<feColorMatrix type="matrix" values="0 0 0 0 0 0 0 0 0 0 0 0 0 0 0 0 0 0 0.25 0"/>
<feBlend mode="normal" in2="BackgroundImageFix" result="effect1_dropShadow_210_394"/>
<feBlend mode="normal" in="SourceGraphic" in2="effect1_dropShadow_210_394" result="shape"/>
</filter>
<clipPath id="clip0_210_394">
<rect width="46" height="31" fill="white" transform="translate(10 7)"/>
</clipPath>
</defs>
</svg>
