<svg width="185" height="87" viewBox="0 0 185 87" fill="none" xmlns="http://www.w3.org/2000/svg">
<g clip-path="url(#clip0_210_459)" filter="url(#filter0_d_210_459)">
<rect x="1" width="184" height="44" fill="#1B75BB"/>
<rect x="1" y="41" width="184" height="44" fill="#FFED02"/>
<g filter="url(#filter1_d_210_459)">
<path d="M57.6164 39.75C57.6164 43.13 56.6364 45.85 54.6764 47.91C52.7164 49.97 50.0964 51 46.8164 51H41.2364V30H47.7464C50.7264 30 53.1164 30.91 54.9164 32.73C56.7164 34.55 57.6164 36.89 57.6164 39.75ZM53.0864 39.51C53.0864 37.63 52.5764 36.15 51.5564 35.07C50.5364 33.99 49.3064 33.45 47.8664 33.45H45.4664V47.55H47.0864C48.7664 47.55 50.1864 46.84 51.3464 45.42C52.5064 43.98 53.0864 42.01 53.0864 39.51ZM68.2203 51.15C65.2803 51.15 63.0603 50.14 61.5603 48.12C60.0603 46.08 59.3103 43.49 59.3103 40.35C59.3103 37.21 60.0603 34.65 61.5603 32.67C63.0803 30.69 65.3003 29.7 68.2203 29.7C71.1603 29.7 73.3903 30.69 74.9103 32.67C76.4303 34.65 77.1903 37.21 77.1903 40.35C77.1903 44.65 75.8803 47.75 73.2603 49.65C71.8803 50.65 70.2003 51.15 68.2203 51.15ZM68.2803 33.15C67.2203 33.15 66.3303 33.52 65.6103 34.26C64.3303 35.54 63.6903 37.57 63.6903 40.35C63.6903 42.45 64.0803 44.2 64.8603 45.6C65.6403 46.98 66.7803 47.67 68.2803 47.67C69.8003 47.67 70.9403 46.97 71.7003 45.57C72.4603 44.15 72.8403 42.43 72.8403 40.41C72.8403 38.37 72.4303 36.65 71.6103 35.25C70.8103 33.85 69.7003 33.15 68.2803 33.15ZM96.2234 51.03H91.6634L84.5534 38.1V51H80.1134V30H84.5534L91.8734 43.56V30H96.2234V51.03ZM115.925 51H111.605L110.105 45.87H103.775L102.305 51H98.1347L104.435 30H109.565L115.925 51ZM109.295 42.42L106.985 33.78L104.645 42.42H109.295ZM119.947 51V33.51H115.117V30H129.037V33.51H124.267V51H119.947ZM144.274 51H131.764V30H144.274V33.45H136.114V37.86H143.524V41.37H136.114V47.55H144.274V51Z" fill="white"/>
</g>
</g>
<defs>
<filter id="filter0_d_210_459" x="-1" y="0" width="186" height="87" filterUnits="userSpaceOnUse" color-interpolation-filters="sRGB">
<feFlood flood-opacity="0" result="BackgroundImageFix"/>
<feColorMatrix in="SourceAlpha" type="matrix" values="0 0 0 0 0 0 0 0 0 0 0 0 0 0 0 0 0 0 127 0" result="hardAlpha"/>
<feOffset dy="1"/>
<feGaussianBlur stdDeviation="0.5"/>
<feComposite in2="hardAlpha" operator="out"/>
<feColorMatrix type="matrix" values="0 0 0 0 0 0 0 0 0 0 0 0 0 0 0 0 0 0 0.25 0"/>
<feBlend mode="normal" in2="BackgroundImageFix" result="effect1_dropShadow_210_459"/>
<feBlend mode="normal" in="SourceGraphic" in2="effect1_dropShadow_210_459" result="shape"/>
</filter>
<filter id="filter1_d_210_459" x="40.2363" y="29.7" width="105.037" height="23.4501" filterUnits="userSpaceOnUse" color-interpolation-filters="sRGB">
<feFlood flood-opacity="0" result="BackgroundImageFix"/>
<feColorMatrix in="SourceAlpha" type="matrix" values="0 0 0 0 0 0 0 0 0 0 0 0 0 0 0 0 0 0 127 0" result="hardAlpha"/>
<feOffset dy="1"/>
<feGaussianBlur stdDeviation="0.5"/>
<feComposite in2="hardAlpha" operator="out"/>
<feColorMatrix type="matrix" values="0 0 0 0 0 0 0 0 0 0 0 0 0 0 0 0 0 0 0.25 0"/>
<feBlend mode="normal" in2="BackgroundImageFix" result="effect1_dropShadow_210_459"/>
<feBlend mode="normal" in="SourceGraphic" in2="effect1_dropShadow_210_459" result="shape"/>
</filter>
<clipPath id="clip0_210_459">
<rect width="184" height="85" fill="white"/>
</clipPath>
</defs>
</svg>
